<svg width="27" height="27" viewBox="0 0 27 27" fill="none" xmlns="http://www.w3.org/2000/svg">
<path fill-rule="evenodd" clip-rule="evenodd" d="M13.5 27C6.04416 27 0 20.9558 0 13.5C0 6.04416 6.04416 0 13.5 0C20.9558 0 27 6.04416 27 13.5C27 20.9558 20.9558 27 13.5 27ZM13.5 25.65C20.2103 25.65 25.65 20.2103 25.65 13.5C25.65 6.78974 20.2103 1.35 13.5 1.35C6.78974 1.35 1.35 6.78974 1.35 13.5C1.35 20.2103 6.78974 25.65 13.5 25.65ZM13.484 22.95C8.67266 22.95 4.10636 18.3354 4.10636 15.0005C4.10636 13.0865 8.26492 15.39 13.484 15.39C18.7031 15.39 22.9076 13.0897 22.8936 15.0005C22.8701 18.2322 18.2954 22.95 13.484 22.95ZM13.484 18.6975C17.9575 18.6975 21.0522 16.9681 21.0522 15.7209C21.0522 14.4738 17.9575 16.4646 13.484 16.4646C9.01051 16.4646 5.96726 14.7127 5.96726 15.7209C5.96726 16.7292 9.01051 18.6975 13.484 18.6975ZM9.43313 11.1037C8.54775 11.1037 7.83 10.386 7.83 9.50059C7.83 8.61521 8.54775 7.89747 9.43313 7.89747C10.3185 7.89747 11.0363 8.61521 11.0363 9.50059C11.0363 10.386 10.3185 11.1037 9.43313 11.1037ZM17.5331 11.1037C16.6477 11.1037 15.93 10.386 15.93 9.50059C15.93 8.61521 16.6477 7.89747 17.5331 7.89747C18.4185 7.89747 19.1363 8.61521 19.1363 9.50059C19.1363 10.386 18.4185 11.1037 17.5331 11.1037Z" fill="#939393"/>
</svg>
