<svg width="76" height="17" viewBox="0 0 76 17" fill="none" xmlns="http://www.w3.org/2000/svg">
<path d="M14.64 11.3271C14.474 7.34344 16.455 4.3275 20.8477 4.49805C24.5166 4.65026 25.904 7.32363 26.1039 10.6521L26.1002 11.7076H22.0572C17.4097 11.7076 17.781 11.6133 18.2857 12.6315C18.7811 13.6025 19.5239 14.0925 20.7334 14.2434C21.7619 14.3659 22.8095 14.1868 23.9525 13.6779L24.3334 13.5083L24.781 14.6111L25.2287 15.714C24.2233 16.5733 22.7791 16.9715 21.3145 16.9863C17.7942 17.0219 14.7952 15.0531 14.64 11.3271ZM42.6491 11.3403C42.4831 7.35664 44.4643 4.3407 48.8569 4.51125C52.5258 4.66346 53.9133 7.33683 54.1132 10.6653L54.1095 11.721H50.0664C45.4188 11.721 45.7901 11.6267 46.295 12.6447C46.7903 13.6157 47.5331 14.1059 48.7425 14.2566C49.7712 14.3793 50.8188 14.2002 51.9616 13.6911L52.3425 13.5215L52.7901 14.6243L53.2378 15.7272C52.2325 16.5865 50.7882 16.9847 49.3236 16.9995C45.8033 17.0351 42.8044 15.0663 42.6491 11.3403ZM51.0569 9.50572C51.0569 9.22294 50.6663 8.35571 50.3806 8.01627C49.9044 7.44118 49.4283 7.24349 48.533 7.25284C47.952 7.25284 47.6854 7.29998 47.3902 7.45072C46.7236 7.79951 46.1998 8.52534 46.0567 9.29831L45.9902 9.64711H48.5235C50.6854 9.64711 51.0569 9.62822 51.0569 9.50572ZM72.9049 13.4045H76V16.6095H72.9049V13.4045ZM67.8096 0.018888H71.1429V16.7037H67.8096V0.018888ZM28.5714 0L31.8857 0.0473151C33.1508 0.0663871 34.6091 0.00348608 35.9856 0.253989C38.8459 0.774616 40.7843 2.65082 40.4334 5.73809C40.1456 8.27008 38.2975 9.22936 37.6192 9.54918C37.6192 9.58677 38.5333 11.1987 39.6572 13.131L41.6858 16.6566C41.2226 16.6649 38.5582 16.7299 38.4285 16.6659C38.3714 16.6472 37.5334 15.2049 36.5716 13.4611L34.747 10.3201C33.7309 10.4575 32.7402 10.388 31.7143 10.388V16.7037H28.5714V0ZM37.0954 5.25066C37.0835 3.70638 36.2109 2.874 34.6456 2.73572C33.6818 2.65063 32.6833 2.65467 31.7143 2.67521V7.79896C33.0457 7.81253 34.9673 7.93889 36.103 7.23011C36.6924 6.86224 37.0863 6.2567 37.0954 5.25066ZM0 0L3.74281 0.0473151C6.167 0.0746393 8.86095 -0.187967 10.4225 1.26774C11.68 2.44011 12.2173 4.6376 11.46 6.19673C11.2088 6.71388 10.8205 7.20498 10.2857 7.69205L10.5524 7.88057C10.9524 8.08798 11.7809 8.8514 12.0954 9.304C12.9904 10.5954 13.0286 12.82 12.1619 14.2717C11.5907 15.2425 10.3904 16.0533 8.96211 16.4492C8.28585 16.6284 7.95234 16.6471 4.12393 16.6848L0 16.7131V0ZM7.91436 13.9229C9.05716 13.527 9.47626 12.9425 9.47626 11.7547C9.47626 10.633 9.11441 10.0581 8.14281 9.61502C7.69518 9.40761 7.5238 9.39826 5.40958 9.37002L3.14288 9.33223V14.0643H5.3238C7.03818 14.0643 7.5905 14.036 7.91436 13.9229ZM8.362 4.61908C8.33346 3.72343 8.20951 3.45019 7.62866 3.06362C7.16195 2.7526 6.5144 2.65834 4.76185 2.65834H3.14288V6.82483L4.98103 6.78705C6.66318 6.76119 8.44 6.81914 8.362 4.61908ZM58.0287 16.7509C57.4817 16.6273 56.9666 16.3924 56.5163 16.0612C54.8028 14.8013 54.5642 12.319 56.2335 10.9016C56.4668 10.7038 56.7229 10.5314 56.981 10.4069C57.8571 9.97317 58.6001 9.83196 60.5715 9.71863C62.9619 9.58678 62.762 9.65279 62.762 8.94566C62.7524 7.9277 62.3429 7.33372 61.4764 7.09825C60.5524 6.84353 59.543 7.06983 59.0096 7.65427C58.8286 7.86168 58.6477 8.13511 58.6096 8.26714L58.5523 8.50261H55.619L55.6762 8.10668C55.8382 7.01335 56.6667 5.91029 57.7714 5.32603C58.7142 4.8263 59.3876 4.64787 60.8922 4.64787C63.3733 4.63192 65.0009 5.32529 65.8571 7.60714L65.8856 12.1602L65.9144 16.7037H62.8573V15.8083C62.8573 15.3181 62.8191 14.9126 62.7811 14.9126C62.7333 14.9126 62.5619 15.1011 62.4002 15.3181C61.562 16.4868 59.6286 17.1184 58.0287 16.7509ZM61.1429 14.4224C62.1619 14.1114 62.762 13.2724 62.762 12.1602V11.5191H62.2668C61.9905 11.5191 61.2763 11.5662 60.6954 11.6134C59.0381 11.7454 58.3906 12.1224 58.3144 12.999C58.2097 14.2528 59.5239 14.9126 61.1429 14.4224ZM23.0477 9.49252C23.0477 9.20955 22.6572 8.34233 22.3715 8.00307C21.8953 7.42798 21.419 7.2301 20.5239 7.23946C19.9428 7.23946 19.6762 7.28658 19.3811 7.43751C18.7144 7.78631 18.1907 8.51214 18.0476 9.28511L17.9811 9.63391H20.5144C22.6763 9.63391 23.0477 9.61502 23.0477 9.49252Z" fill="#FAFAFA"/>
</svg>
