<svg width="16" height="8" viewBox="0 0 16 8" fill="none" xmlns="http://www.w3.org/2000/svg">
<path d="M12.2114 7.49837C12.9206 7.49837 13.5143 7.34295 13.9688 7.04084C14.4299 6.73434 14.7166 6.29659 14.8311 5.80111C15.0551 4.83192 14.6143 3.72749 13.783 2.89612C13.0014 2.11451 12.2071 1.50668 11.2333 1.09983C10.2607 0.693514 9.14281 0.501661 7.73115 0.501661C5.86571 0.501661 4.51006 0.978379 3.48438 1.60213C2.60574 2.13646 1.97791 2.77675 1.51182 3.25208C1.44116 3.32415 1.37421 3.39242 1.31068 3.45595C0.701205 4.06543 0.370237 5.03053 0.5511 5.88395C0.64435 6.32395 0.876538 6.74036 1.28111 7.04211C1.68288 7.34176 2.21393 7.49837 2.8563 7.49837H7.73103H12.2114Z" fill="#FAFAFA" stroke="black"/>
</svg>
