<svg width="16" height="25" viewBox="0 0 16 25" fill="none" xmlns="http://www.w3.org/2000/svg">
<path fill-rule="evenodd" clip-rule="evenodd" d="M7.5637 0C5.23698 0 3.34216 1.88904 3.34216 4.2193V13.9904C3.34216 16.321 5.23216 18.2097 7.5637 18.2097C9.89043 18.2097 11.7851 16.3206 11.7851 13.9904V4.2193C11.7851 1.88872 9.89508 0 7.5637 0ZM5.15137 4.21367V13.996C5.15137 15.3135 6.23137 16.3997 7.5637 16.3997C8.90519 16.3997 9.97588 15.3235 9.97588 13.996V4.21367C9.97588 2.8962 8.89587 1.81001 7.5637 1.81001C6.22205 1.81001 5.15137 2.88616 5.15137 4.21367Z" fill="#939393"/>
<path d="M8.55263 23.19V20.667C13.1579 20.4037 15.1316 16.6262 15.1316 12.935V11.233C15.1324 11.2197 15.1322 11.2064 15.1319 11.193L15.1316 11.1726C15.1316 10.6728 14.7233 10.2676 14.2238 10.2676C13.7241 10.2676 13.329 10.6728 13.329 11.1726V12.934C13.329 16.6257 11.8421 19.1532 7.63164 19.1532C3.94737 19.1532 1.80921 16.6257 1.80921 12.934V11.233C1.80921 10.7332 1.40413 10.328 0.904605 10.328C0.405081 10.328 0 10.7332 0 11.233V12.935C0 16.6304 2.63158 20.4037 6.71049 20.667V23.19H3.31999C2.82689 23.19 2.41233 23.5952 2.41233 24.095C2.41233 24.5983 2.8187 25 3.31999 25H11.8421C12.3352 25 12.7631 24.5948 12.7631 24.095C12.7631 23.5917 12.3434 23.19 11.8421 23.19H8.55263Z" fill="#939393"/>
</svg>
